<mxfile host="65bd71144e">
    <diagram id="bVoswQC8T6PlKmy4Bn8u" name="Page-1">
        <mxGraphModel dx="2388" dy="1893" grid="1" gridSize="10" guides="1" tooltips="1" connect="1" arrows="1" fold="1" page="1" pageScale="1" pageWidth="827" pageHeight="1169" math="0" shadow="0">
            <root>
                <mxCell id="0"/>
                <mxCell id="1" parent="0"/>
                <mxCell id="361" style="edgeStyle=none;html=1;entryX=0.5;entryY=0;entryDx=0;entryDy=0;" edge="1" parent="1" source="362" target="364">
                    <mxGeometry relative="1" as="geometry"/>
                </mxCell>
                <mxCell id="362" value="Start" style="ellipse;whiteSpace=wrap;html=1;" vertex="1" parent="1">
                    <mxGeometry x="340" y="680" width="120" height="60" as="geometry"/>
                </mxCell>
                <mxCell id="363" value="" style="edgeStyle=none;html=1;" edge="1" parent="1" source="364" target="365">
                    <mxGeometry relative="1" as="geometry"/>
                </mxCell>
                <mxCell id="364" value="return stackClass" style="shape=parallelogram;perimeter=parallelogramPerimeter;whiteSpace=wrap;html=1;fixedSize=1;" vertex="1" parent="1">
                    <mxGeometry x="330" y="760" width="140" height="50" as="geometry"/>
                </mxCell>
                <mxCell id="365" value="Stop" style="ellipse;whiteSpace=wrap;html=1;" vertex="1" parent="1">
                    <mxGeometry x="340" y="830" width="120" height="60" as="geometry"/>
                </mxCell>
                <mxCell id="366" value="StackArray()" style="text;html=1;align=center;verticalAlign=middle;resizable=0;points=[];autosize=1;strokeColor=none;fillColor=none;" vertex="1" parent="1">
                    <mxGeometry x="360.5" y="650" width="80" height="20" as="geometry"/>
                </mxCell>
                <mxCell id="367" value="" style="edgeStyle=none;html=1;" edge="1" parent="1" source="368" target="389">
                    <mxGeometry relative="1" as="geometry"/>
                </mxCell>
                <mxCell id="368" value="Start" style="ellipse;whiteSpace=wrap;html=1;" vertex="1" parent="1">
                    <mxGeometry x="506.5" y="680" width="120" height="60" as="geometry"/>
                </mxCell>
                <mxCell id="369" value="" style="edgeStyle=none;html=1;" edge="1" parent="1" source="370" target="371">
                    <mxGeometry relative="1" as="geometry"/>
                </mxCell>
                <mxCell id="370" value="return this.stackClass.pop()" style="shape=parallelogram;perimeter=parallelogramPerimeter;whiteSpace=wrap;html=1;fixedSize=1;" vertex="1" parent="1">
                    <mxGeometry x="479.75" y="915" width="173.5" height="60" as="geometry"/>
                </mxCell>
                <mxCell id="371" value="Stop" style="ellipse;whiteSpace=wrap;html=1;" vertex="1" parent="1">
                    <mxGeometry x="506.5" y="990" width="120" height="60" as="geometry"/>
                </mxCell>
                <mxCell id="372" value="Pop()" style="text;html=1;align=center;verticalAlign=middle;resizable=0;points=[];autosize=1;strokeColor=none;fillColor=none;" vertex="1" parent="1">
                    <mxGeometry x="546.5" y="650" width="40" height="20" as="geometry"/>
                </mxCell>
                <mxCell id="373" value="" style="edgeStyle=none;rounded=0;html=1;" edge="1" parent="1" source="374" target="380">
                    <mxGeometry relative="1" as="geometry"/>
                </mxCell>
                <mxCell id="374" value="Start" style="ellipse;whiteSpace=wrap;html=1;" vertex="1" parent="1">
                    <mxGeometry x="1240" y="700" width="120" height="60" as="geometry"/>
                </mxCell>
                <mxCell id="375" style="edgeStyle=none;html=1;entryX=0.5;entryY=0;entryDx=0;entryDy=0;" edge="1" parent="1" source="376" target="380">
                    <mxGeometry relative="1" as="geometry"/>
                </mxCell>
                <mxCell id="376" value="Get pushedNum" style="shape=parallelogram;perimeter=parallelogramPerimeter;whiteSpace=wrap;html=1;fixedSize=1;" vertex="1" parent="1">
                    <mxGeometry x="1230" y="780" width="140" height="50" as="geometry"/>
                </mxCell>
                <mxCell id="377" value="Stop" style="ellipse;whiteSpace=wrap;html=1;" vertex="1" parent="1">
                    <mxGeometry x="1240" y="900" width="120" height="60" as="geometry"/>
                </mxCell>
                <mxCell id="378" value="Push()" style="text;html=1;align=center;verticalAlign=middle;resizable=0;points=[];autosize=1;strokeColor=none;fillColor=none;" vertex="1" parent="1">
                    <mxGeometry x="1275" y="670" width="50" height="20" as="geometry"/>
                </mxCell>
                <mxCell id="379" value="" style="edgeStyle=none;html=1;" edge="1" parent="1" source="380" target="377">
                    <mxGeometry relative="1" as="geometry"/>
                </mxCell>
                <mxCell id="380" value="this.stackClass.push(pushedNum)" style="whiteSpace=wrap;html=1;" vertex="1" parent="1">
                    <mxGeometry x="1205" y="840" width="190" height="40" as="geometry"/>
                </mxCell>
                <mxCell id="381" value="" style="edgeStyle=none;rounded=0;html=1;" edge="1" parent="1" source="382" target="394">
                    <mxGeometry relative="1" as="geometry"/>
                </mxCell>
                <mxCell id="382" value="Start" style="ellipse;whiteSpace=wrap;html=1;" vertex="1" parent="1">
                    <mxGeometry x="866.13" y="690" width="120" height="60" as="geometry"/>
                </mxCell>
                <mxCell id="383" value="" style="edgeStyle=none;html=1;" edge="1" parent="1" source="384" target="385">
                    <mxGeometry relative="1" as="geometry"/>
                </mxCell>
                <mxCell id="384" value="return this,stackClass[this.stackClass.length-1]" style="shape=parallelogram;perimeter=parallelogramPerimeter;whiteSpace=wrap;html=1;fixedSize=1;" vertex="1" parent="1">
                    <mxGeometry x="786.76" y="910" width="278.25" height="60" as="geometry"/>
                </mxCell>
                <mxCell id="385" value="Stop" style="ellipse;whiteSpace=wrap;html=1;" vertex="1" parent="1">
                    <mxGeometry x="865.88" y="990" width="120" height="60" as="geometry"/>
                </mxCell>
                <mxCell id="386" value="Peak()" style="text;html=1;align=center;verticalAlign=middle;resizable=0;points=[];autosize=1;strokeColor=none;fillColor=none;" vertex="1" parent="1">
                    <mxGeometry x="904.13" y="660" width="50" height="20" as="geometry"/>
                </mxCell>
                <mxCell id="387" value="" style="edgeStyle=none;html=1;" edge="1" parent="1" source="389" target="370">
                    <mxGeometry relative="1" as="geometry"/>
                </mxCell>
                <mxCell id="388" style="edgeStyle=none;html=1;entryX=0.5;entryY=0;entryDx=0;entryDy=0;rounded=0;" edge="1" parent="1" source="389" target="391">
                    <mxGeometry relative="1" as="geometry">
                        <Array as="points">
                            <mxPoint x="720" y="830"/>
                        </Array>
                    </mxGeometry>
                </mxCell>
                <mxCell id="389" value="if (stackNum != 0)" style="rhombus;whiteSpace=wrap;html=1;" vertex="1" parent="1">
                    <mxGeometry x="509.75" y="780" width="113.5" height="100" as="geometry"/>
                </mxCell>
                <mxCell id="390" style="edgeStyle=none;html=1;entryX=1;entryY=0.5;entryDx=0;entryDy=0;rounded=0;" edge="1" parent="1" source="391" target="371">
                    <mxGeometry relative="1" as="geometry">
                        <Array as="points">
                            <mxPoint x="720" y="1020"/>
                        </Array>
                    </mxGeometry>
                </mxCell>
                <mxCell id="391" value="return Nothing In Stack" style="shape=parallelogram;perimeter=parallelogramPerimeter;whiteSpace=wrap;html=1;fixedSize=1;" vertex="1" parent="1">
                    <mxGeometry x="650" y="920" width="140" height="50" as="geometry"/>
                </mxCell>
                <mxCell id="392" value="" style="edgeStyle=none;rounded=0;html=1;" edge="1" parent="1" source="394" target="384">
                    <mxGeometry relative="1" as="geometry"/>
                </mxCell>
                <mxCell id="393" style="edgeStyle=none;rounded=0;html=1;entryX=0.5;entryY=0;entryDx=0;entryDy=0;" edge="1" parent="1" source="394" target="396">
                    <mxGeometry relative="1" as="geometry">
                        <Array as="points">
                            <mxPoint x="1135" y="830"/>
                        </Array>
                    </mxGeometry>
                </mxCell>
                <mxCell id="394" value="if (stackNum != 0)" style="rhombus;whiteSpace=wrap;html=1;" vertex="1" parent="1">
                    <mxGeometry x="869.13" y="780" width="113.5" height="100" as="geometry"/>
                </mxCell>
                <mxCell id="395" style="edgeStyle=none;rounded=0;html=1;entryX=1;entryY=0.5;entryDx=0;entryDy=0;" edge="1" parent="1" source="396" target="385">
                    <mxGeometry relative="1" as="geometry">
                        <Array as="points">
                            <mxPoint x="1135" y="1020"/>
                        </Array>
                    </mxGeometry>
                </mxCell>
                <mxCell id="396" value="return Nothing In Stack" style="shape=parallelogram;perimeter=parallelogramPerimeter;whiteSpace=wrap;html=1;fixedSize=1;" vertex="1" parent="1">
                    <mxGeometry x="1065" y="915" width="140" height="50" as="geometry"/>
                </mxCell>
                <mxCell id="397" value="yes" style="text;html=1;align=center;verticalAlign=middle;resizable=0;points=[];autosize=1;strokeColor=none;fillColor=none;" vertex="1" parent="1">
                    <mxGeometry x="580" y="880" width="30" height="20" as="geometry"/>
                </mxCell>
                <mxCell id="398" value="no" style="text;html=1;align=center;verticalAlign=middle;resizable=0;points=[];autosize=1;strokeColor=none;fillColor=none;" vertex="1" parent="1">
                    <mxGeometry x="623.25" y="800" width="30" height="20" as="geometry"/>
                </mxCell>
                <mxCell id="399" value="yes" style="text;html=1;align=center;verticalAlign=middle;resizable=0;points=[];autosize=1;strokeColor=none;fillColor=none;" vertex="1" parent="1">
                    <mxGeometry x="950" y="880" width="30" height="20" as="geometry"/>
                </mxCell>
                <mxCell id="400" value="no" style="text;html=1;align=center;verticalAlign=middle;resizable=0;points=[];autosize=1;strokeColor=none;fillColor=none;" vertex="1" parent="1">
                    <mxGeometry x="986.13" y="795" width="30" height="20" as="geometry"/>
                </mxCell>
                <mxCell id="401" value="yes" style="text;html=1;align=center;verticalAlign=middle;resizable=0;points=[];autosize=1;strokeColor=none;fillColor=none;" vertex="1" parent="1">
                    <mxGeometry x="580" y="880" width="30" height="20" as="geometry"/>
                </mxCell>
                <mxCell id="402" value="" style="edgeStyle=none;html=1;" edge="1" parent="1" source="403" target="405">
                    <mxGeometry relative="1" as="geometry"/>
                </mxCell>
                <mxCell id="403" value="Start" style="ellipse;whiteSpace=wrap;html=1;" vertex="1" parent="1">
                    <mxGeometry x="1465" y="700" width="120" height="60" as="geometry"/>
                </mxCell>
                <mxCell id="404" value="" style="edgeStyle=none;html=1;" edge="1" parent="1" source="405" target="406">
                    <mxGeometry relative="1" as="geometry"/>
                </mxCell>
                <mxCell id="405" value="return this.stackClass.length = 0" style="shape=parallelogram;perimeter=parallelogramPerimeter;whiteSpace=wrap;html=1;fixedSize=1;" vertex="1" parent="1">
                    <mxGeometry x="1422.5" y="780" width="205" height="60" as="geometry"/>
                </mxCell>
                <mxCell id="406" value="Stop" style="ellipse;whiteSpace=wrap;html=1;" vertex="1" parent="1">
                    <mxGeometry x="1465" y="880" width="120" height="60" as="geometry"/>
                </mxCell>
                <mxCell id="407" value="Clear.()" style="text;html=1;align=center;verticalAlign=middle;resizable=0;points=[];autosize=1;strokeColor=none;fillColor=none;" vertex="1" parent="1">
                    <mxGeometry x="1495" y="670" width="60" height="20" as="geometry"/>
                </mxCell>
            </root>
        </mxGraphModel>
    </diagram>
</mxfile>